<svg xmlns="http://www.w3.org/2000/svg" viewBox="0 0 64 64">
  <!-- body -->
  <path d="M32 8 C18 8 14 20 14 30 L14 50 L20 44 L26 50 L32 44 L38 50 L44 44 L50 50 L50 30 C50 20 46 8 32 8 Z"
        fill="none" stroke="#e6edf3" stroke-width="2.5" stroke-linejoin="round"/>
  <!-- eyes -->
  <circle cx="25" cy="28" r="1.8" fill="#e6edf3"/>
  <circle cx="39" cy="28" r="1.8" fill="#e6edf3"/>
  <!-- mouth -->
  <line x1="28" y1="34" x2="36" y2="34" stroke="#e6edf3" stroke-width="2" stroke-linecap="round"/>
  <!-- arm -->
  <path d="M36 40 Q40 38 41 34" fill="none" stroke="#e6edf3" stroke-width="2" stroke-linecap="round"/>
  <!-- cup -->
  <rect x="38" y="34" width="9" height="7" rx="1.5" fill="#58a6ff"/>
  <!-- steam -->
  <path d="M41 32 Q42 30 41 28" fill="none" stroke="#8b949e" stroke-width="1.5" stroke-linecap="round"/>
  <path d="M44 32 Q45 30 44 28" fill="none" stroke="#8b949e" stroke-width="1.5" stroke-linecap="round"/>
</svg>
